<?xml version="1.0" encoding="UTF-8" standalone="no"?>
<!DOCTYPE svg PUBLIC "-//W3C//DTD SVG 1.1//EN" "http://www.w3.org/Graphics/SVG/1.1/DTD/svg11.dtd">
<svg width="100%" height="100%" viewBox="0 0 179 253" version="1.1" xmlns="http://www.w3.org/2000/svg" xmlns:xlink="http://www.w3.org/1999/xlink" xml:space="preserve" xmlns:serif="http://www.serif.com/" style="fill-rule:evenodd;clip-rule:evenodd;stroke-linejoin:round;stroke-miterlimit:2;">
    <rect id="Artboard1" x="0" y="0" width="178.824" height="252.069" style="fill:none;"/>
    <clipPath id="_clip1">
        <rect x="0" y="0" width="178.824" height="252.069"/>
    </clipPath>
    <g clip-path="url(#_clip1)">
        <g>
            <g>
                <path d="M157.02,86.246L155.393,86.246C151.262,86.246 147.394,87.369 144.067,89.326C142.812,78.165 133.312,69.458 121.82,69.458L120.193,69.458C115.678,69.458 111.468,70.802 107.945,73.113C105.054,64.094 96.587,57.546 86.619,57.546L84.992,57.546C80.92,57.546 77.1,58.638 73.806,60.545L73.806,23.354C73.806,11.008 63.762,0.964 51.419,0.964L49.789,0.964C37.446,0.964 27.402,11.008 27.402,23.354L27.402,100.946C27.402,100.946 12.267,102.934 8.837,104.557C-0.136,108.801 1.001,136.633 0.873,147.384C0.748,157.876 2.548,168.026 9.147,176.182L43.689,218.886L43.689,236.276C43.689,245.516 51.209,253.033 60.449,253.033L145.747,253.033C154.987,253.033 162.504,245.513 162.504,236.276L162.504,219.748C173.419,206.246 179.41,189.402 179.41,172.084L179.41,108.635C179.41,96.289 169.366,86.246 157.02,86.246ZM168.207,172.087C168.207,187.352 162.74,202.19 152.805,213.898C151.864,214.909 151.301,216.261 151.301,217.718L151.301,236.279C151.301,239.343 148.808,241.833 145.747,241.833L60.449,241.833C57.385,241.833 54.892,239.34 54.892,236.279L54.892,216.906C54.892,215.623 54.452,214.379 53.646,213.382L17.857,169.138C13.182,163.36 11.101,156.114 11.995,148.734C12.888,141.357 10.813,118.668 16.145,113.159C19.042,110.165 27.402,111.996 27.402,111.996L27.402,129.143C27.402,132.235 29.912,134.745 33.004,134.745C36.096,134.745 38.605,132.235 38.605,129.143L38.605,23.354C38.605,17.186 43.622,12.167 49.789,12.167L51.419,12.167C57.586,12.167 62.603,17.186 62.603,23.354L62.603,79.941L62.603,79.944L62.639,127.008C62.642,130.1 65.149,132.607 68.241,132.607L68.243,132.607C71.335,132.604 73.845,130.098 73.842,127.003L73.806,79.944C73.806,73.776 78.825,68.757 84.992,68.757L86.619,68.757C92.787,68.757 97.806,73.776 97.806,79.944L97.806,91.861L97.842,127.014C97.845,130.106 100.352,132.61 103.444,132.61L103.449,132.61C106.542,132.607 109.048,130.098 109.045,127.003L109.009,91.856C109.009,85.688 114.025,80.669 120.193,80.669L121.82,80.669C127.987,80.669 133.006,85.688 133.006,91.856L133.006,106.745C132.975,106.983 132.933,107.218 132.936,107.462L132.973,127.014C132.978,130.106 135.485,132.607 138.574,132.607L138.585,132.607C141.678,132.602 144.181,130.089 144.176,126.997L144.145,109.313C144.173,109.089 144.212,108.87 144.212,108.641C144.212,102.473 149.229,97.454 155.396,97.454L157.023,97.454C163.191,97.454 168.21,102.473 168.21,108.641L168.21,172.087L168.207,172.087Z" style="fill:#de2726;fill-rule:nonzero;"/>
            </g>
        </g>
    </g>
</svg>
