<?xml version="1.0" encoding="UTF-8" standalone="no"?>
<!DOCTYPE svg PUBLIC "-//W3C//DTD SVG 1.1//EN" "http://www.w3.org/Graphics/SVG/1.1/DTD/svg11.dtd">
<svg width="100%" height="100%" viewBox="0 0 163 163" version="1.1" xmlns="http://www.w3.org/2000/svg" xmlns:xlink="http://www.w3.org/1999/xlink" xml:space="preserve" xmlns:serif="http://www.serif.com/" style="fill-rule:evenodd;clip-rule:evenodd;stroke-linejoin:round;stroke-miterlimit:2;">
    <rect id="Artboard5" x="0" y="0" width="162.619" height="162.619" style="fill:none;"/>
    <clipPath id="_clip1">
        <rect x="0" y="0" width="162.619" height="162.619"/>
    </clipPath>
    <g clip-path="url(#_clip1)">
        <g>
            <path d="M81.59,0.135C126.466,0.135 162.9,36.569 162.9,81.445C162.9,126.321 126.466,162.755 81.59,162.755C36.714,162.755 0.28,126.321 0.28,81.445C0.28,36.569 36.714,0.135 81.59,0.135ZM81.59,4.567C124.021,4.567 158.469,39.015 158.469,81.445C158.469,123.876 124.021,158.324 81.59,158.324C39.16,158.324 4.712,123.876 4.712,81.445C4.712,39.015 39.16,4.567 81.59,4.567Z" style="fill:#1a1a1a;"/>
            <path d="M83.931,0.169C82.371,0.124 80.809,0.124 79.249,0.169L78.696,12.392C68.531,12.819 58.586,15.483 49.57,20.197L42.98,9.887C41.606,10.629 40.253,11.409 38.924,12.229L44.557,23.091C35.967,28.542 28.687,35.823 23.236,44.412L12.374,38.78C11.554,40.109 10.774,41.461 10.032,42.835L20.342,49.425C15.628,58.441 12.963,68.386 12.537,78.551L0.314,79.104C0.269,80.664 0.269,82.226 0.314,83.786L12.537,84.339C12.963,94.504 15.628,104.449 20.342,113.465L10.032,120.056C10.774,121.43 11.554,122.782 12.374,124.111L23.236,118.478C28.687,127.068 35.967,134.348 44.557,139.799L38.924,150.662C40.253,151.481 41.606,152.262 42.98,153.003L49.57,142.694C58.586,147.407 68.531,150.072 78.696,150.498L79.249,162.721C80.809,162.766 82.371,162.766 83.931,162.721L84.484,150.498C94.649,150.072 104.594,147.407 113.61,142.694L120.201,153.003C121.574,152.262 122.927,151.481 124.256,150.662L118.623,139.799C127.213,134.348 134.493,127.068 139.944,118.478L150.807,124.111C151.626,122.782 152.406,121.43 153.148,120.056L142.839,113.465C147.552,104.449 150.217,94.504 150.643,84.339L162.866,83.786C162.911,82.226 162.911,80.664 162.866,79.104L150.643,78.551C150.217,68.386 147.552,58.441 142.839,49.425L153.148,42.835C152.406,41.461 151.626,40.109 150.807,38.78L139.944,44.412C134.493,35.823 127.213,28.542 118.623,23.091L124.256,12.229C122.927,11.409 121.574,10.629 120.201,9.887L113.61,20.197C104.594,15.483 94.649,12.819 84.484,12.392L83.931,0.169ZM85.286,79.666L85.328,79.624L54.147,48.443L50.108,52.481L80.851,83.223L81.727,83.224L138.535,83.224L138.535,79.666L85.286,79.666Z" style="fill:#1a1a1a;"/>
        </g>
    </g>
</svg>
