<?xml version="1.0" encoding="UTF-8" standalone="no"?>
<!DOCTYPE svg PUBLIC "-//W3C//DTD SVG 1.1//EN" "http://www.w3.org/Graphics/SVG/1.1/DTD/svg11.dtd">
<svg width="100%" height="100%" viewBox="0 0 941 67" version="1.1" xmlns="http://www.w3.org/2000/svg" xmlns:xlink="http://www.w3.org/1999/xlink" xml:space="preserve" xmlns:serif="http://www.serif.com/" style="fill-rule:evenodd;clip-rule:evenodd;stroke-linejoin:round;stroke-miterlimit:2;">
    <rect id="Artboard12" x="0" y="0" width="940.415" height="66.651" style="fill:none;"/>
    <clipPath id="_clip1">
        <rect x="0" y="0" width="940.415" height="66.651"/>
    </clipPath>
    <g clip-path="url(#_clip1)">
        <g>
            <path d="M180.609,36.038L180.56,36.031C176.613,35.217 172.904,33.768 169.37,31.966C163.88,29.167 158.811,25.509 153.973,21.916C152,20.452 145.809,16.094 140.599,14.005C137.338,12.697 134.353,12.414 132.524,13.361C129.667,14.84 128.59,17.561 128.736,21.02C128.933,25.652 131.582,31.861 132.442,36.542C132.707,37.985 132.928,39.223 132.392,40.04C131.972,40.68 131.071,40.716 129.643,40.601C127.059,40.422 124.86,39.359 122.838,37.952C119.375,35.543 116.391,32.192 113.239,29.72C106.737,24.597 99.497,18.675 91.714,14.023C86.474,10.891 81,8.316 75.287,7.015C61.056,3.579 38.986,1.594 22.615,7.113C10.843,11.081 1.987,18.903 0.952,32.849C0.32,41.343 1.766,47.954 4.452,52.796C8.31,59.751 14.724,63.087 21.333,63.127C26.703,63.16 31.86,62.379 35.634,60.098C38.472,58.383 40.544,55.829 41.372,52.145C41.889,49.842 41.835,47.696 41.129,45.813C40.422,43.928 39.063,42.299 36.939,41.042C36.057,40.52 33.454,40.307 31.5,40.94C30.05,41.41 28.98,42.332 28.98,43.758C28.98,44.048 29.216,44.284 29.506,44.284C29.796,44.284 30.031,44.048 30.031,43.758C30.031,42.795 30.845,42.258 31.824,41.941C33.469,41.408 35.661,41.508 36.403,41.947C38.293,43.066 39.514,44.505 40.143,46.183C40.782,47.887 40.812,49.829 40.343,51.914C39.585,55.287 37.687,57.625 35.088,59.195C31.462,61.386 26.499,62.101 21.34,62.069C15.088,62.029 9.029,58.86 5.382,52.28C2.778,47.584 1.403,41.166 2.019,32.929C3.026,19.479 11.595,11.935 22.962,8.148C39.138,2.758 60.923,4.928 74.946,8.41C80.443,9.851 85.694,12.484 90.648,15.727C98.146,20.633 104.959,26.896 111.128,32.268C114.209,34.963 117.06,38.564 120.486,41.179C123.043,43.13 125.91,44.523 129.273,44.873C134.162,45.327 136.152,43.341 136.833,40.55C137.201,39.039 137.082,37.094 136.628,34.922C135.951,31.676 134.534,27.815 133.733,24.298C133.362,22.67 133.12,21.129 133.227,19.798C133.312,18.731 133.63,17.821 134.581,17.326C135.055,17.08 135.708,17.198 136.458,17.354C137.763,17.625 139.25,18.214 140.772,18.942C145.146,21.035 149.742,24.278 151.349,25.464C156.396,29.179 161.687,32.956 167.413,35.833C171.3,37.785 175.386,39.326 179.72,40.185C182.035,40.644 183.386,39.729 184.207,38.309C185.335,36.358 184.831,32.418 184.812,31.257C184.767,28.475 183.946,23.811 185.182,20.682C185.76,19.22 186.987,18.318 189.298,18.479C190.26,18.545 191.196,19.463 192.321,20.622C196.242,24.662 200.944,32.075 206.558,36.173C210.602,39.083 216.642,41.215 223.233,42.625C232.258,44.556 242.304,45.19 249.364,44.905C251.783,44.813 255.596,44.221 259.398,43.461C263.118,42.717 266.827,41.818 269.183,41.072C272.72,39.959 275.453,38.033 277.481,35.916C280.456,32.81 281.911,29.293 282.174,27.34C282.675,23.692 278.771,19.829 274.383,18.591C270.324,17.445 265.945,18.469 264.47,23.758C264.158,24.868 264.418,26.425 265.212,27.55C265.974,28.63 267.198,29.328 268.832,28.938C269.114,28.871 269.289,28.588 269.222,28.306C269.155,28.024 268.871,27.849 268.589,27.916C267.454,28.184 266.607,27.691 266.08,26.94C265.476,26.079 265.26,24.895 265.501,24.049C266.796,19.509 270.586,18.672 274.068,19.688C277.853,20.792 281.38,24.01 280.91,27.159C280.64,28.942 279.228,32.123 276.455,34.915C274.549,36.833 271.993,38.56 268.712,39.521C266.384,40.199 262.725,41 259.057,41.637C255.36,42.28 251.655,42.756 249.313,42.782C242.418,42.839 232.64,41.91 223.898,39.743C217.851,38.244 212.307,36.16 208.658,33.351C203.273,29.265 198.895,21.917 195.146,17.925C193.204,15.857 191.29,14.651 189.601,14.509C184.934,14.121 182.59,16.217 181.391,19.16C179.93,22.744 180.613,28.108 180.641,31.309C180.646,31.886 180.862,33.3 180.824,34.685C180.817,34.953 180.797,35.221 180.76,35.476C180.736,35.645 180.662,35.884 180.609,36.038Z" style="fill:#ff1b00;"/>
            <path d="M257.991,24.872C258.985,23.402 260.356,23.143 261.341,23.77C262.293,24.376 262.827,25.737 262.368,27.435C261.193,31.739 255.388,33.382 250.197,32.38C245.513,31.475 241.258,28.354 241.378,22.844C241.565,15.773 247.257,12.839 254.348,11.9C264.924,10.499 278.608,13.544 283.489,14.831C291.516,16.966 299.031,20.002 306.255,23.606C310.636,25.792 314.889,28.215 319.108,30.733C325.414,34.496 331.618,38.509 337.789,42.67C343.077,46.202 349.461,52.213 356.177,55.288C359.587,56.849 363.086,57.68 366.576,57.308C370.796,56.838 373.313,55.369 374.75,53.454C376.014,51.769 376.544,49.672 376.41,47.283C376.137,42.383 372.951,36.032 371.242,30.471C370.124,26.83 369.433,23.568 371.916,21.701C374.111,20.056 376.834,20.095 379.62,20.788C384.165,21.919 388.858,24.738 392.251,26.122C397.799,28.432 403.652,29.574 409.575,29.917C415.451,30.256 421.4,29.813 427.188,28.772C427.474,28.723 427.665,28.45 427.616,28.165C427.566,27.879 427.294,27.688 427.008,27.737C421.3,28.696 415.436,29.13 409.661,28.667C403.924,28.208 398.288,26.86 392.983,24.443C388.972,22.577 383.197,18.698 377.867,17.81C375.12,17.352 372.488,17.679 370.164,19.212C366.47,21.642 366.335,26.202 367.619,31.469C368.912,36.77 371.631,42.848 371.713,47.451C371.762,50.198 370.333,52.014 366.062,52.426C362.535,52.794 359.04,51.413 355.654,49.463C350.133,46.283 344.931,41.542 340.504,38.598C331.709,32.839 322.927,27.238 313.698,22.578C304.404,17.885 294.68,14.142 284.227,11.813C279.143,10.667 264.918,8.106 254.051,9.896C246.076,11.21 239.887,14.833 239.891,22.825C239.865,29.079 244.644,32.623 249.974,33.578C255.782,34.62 262.145,32.531 263.413,27.716C264.017,25.45 263.182,23.675 261.911,22.872C260.513,21.988 258.522,22.198 257.12,24.285C256.958,24.525 257.021,24.852 257.262,25.014C257.502,25.176 257.829,25.112 257.991,24.872Z" style="fill:#ff1b00;"/>
            <path d="M428.421,15.688C421.639,16.776 413.141,19.531 406.311,23.822C398.876,28.494 393.518,34.978 393.837,42.784C394.187,54.681 406.851,62.99 423.532,65.662C432.588,67.112 442.799,66.959 452.604,64.919C462.433,62.875 471.834,58.917 479.338,53.01C483.387,49.795 484.536,46.977 484.325,44.867C484.163,43.246 483.287,41.773 481.692,40.548C479.505,38.869 475.694,37.582 471.523,36.563C466.291,35.285 460.466,34.376 457.435,32.983C448.945,29.127 442.843,25.973 438.63,23.405C439.064,23.023 439.455,22.637 439.793,22.253C441.105,20.759 441.583,19.229 441.139,17.989C440.846,17.17 440.138,16.398 438.809,15.824C437.842,15.406 436.419,15.187 434.67,15.162C435.427,14.883 436.278,14.626 437.203,14.38C449.01,11.235 471.43,9.813 471.005,-0.004L471.001,-0.325L470.36,-0.316L470.364,0.004C470.286,4.378 465.462,6.562 459.258,7.986C451.969,9.66 442.78,10.191 436.519,11.468C433.352,12.114 430.895,13.031 429.567,14.201C429.051,14.655 428.667,15.15 428.421,15.688ZM428.175,18.154C421.942,19.437 414.204,22.308 408.002,26.436C401.8,30.564 397.072,35.972 397.514,42.598L397.514,42.61C398.05,52.937 409.699,59.145 424.206,61.182C432.759,62.384 442.351,62.032 451.569,60.04C460.625,58.083 469.336,54.55 476.264,49.103C479.246,46.779 480.209,45.582 478.702,44.4C476.926,43.006 473.764,42.057 470.362,41.174C464.838,39.741 458.706,38.593 455.518,37.065C446.344,32.615 439.906,29.087 435.669,26.209L435.194,25.879C432.43,27.549 429.298,28.838 427.214,29.097L426.372,29.213L426.14,27.529L426.982,27.413C428.715,27.15 431.224,26.072 433.534,24.668C430.27,22.162 428.695,20.103 428.263,18.532C428.228,18.405 428.198,18.279 428.175,18.154ZM436.849,22.283L436.94,22.205C438.861,20.505 440.216,18.791 437.951,17.883C436.616,17.347 434.387,17.262 431.638,17.588C432.092,18.871 433.789,20.303 436.849,22.283Z" style="fill:#ff1b00;"/>
        </g>
        <g>
            <path d="M761.133,36.04C761.103,35.964 761.071,35.873 761.054,35.803C760.973,35.457 760.94,35.072 760.929,34.685C760.891,33.3 761.107,31.886 761.112,31.309C761.14,28.108 761.823,22.744 760.363,19.16C759.163,16.217 756.819,14.121 752.153,14.509C750.464,14.651 748.55,15.857 746.607,17.925C742.859,21.917 738.48,29.265 733.095,33.351C729.446,36.16 723.902,38.244 717.855,39.743C709.113,41.91 699.335,42.839 692.441,42.782C690.098,42.756 686.393,42.28 682.696,41.637C679.028,41 675.37,40.199 673.041,39.521C669.76,38.56 667.204,36.833 665.298,34.915C662.525,32.123 661.113,28.942 660.843,27.159C660.374,24.01 663.9,20.792 667.685,19.688C671.167,18.672 674.957,19.509 676.253,24.049C676.493,24.895 676.277,26.079 675.673,26.94C675.146,27.691 674.299,28.184 673.164,27.916C672.882,27.849 672.598,28.024 672.532,28.306C672.465,28.588 672.639,28.871 672.921,28.938C674.555,29.328 675.779,28.63 676.541,27.55C677.335,26.425 677.595,24.868 677.284,23.758C675.808,18.469 671.429,17.445 667.37,18.591C662.982,19.829 659.078,23.692 659.579,27.34C659.842,29.293 661.297,32.81 664.272,35.916C666.301,38.033 669.034,39.959 672.57,41.072C674.926,41.818 678.635,42.717 682.356,43.461C686.157,44.221 689.97,44.813 692.389,44.905C699.449,45.19 709.495,44.556 718.52,42.625C725.112,41.215 731.151,39.083 735.195,36.173C740.809,32.075 745.511,24.662 749.432,20.622C750.557,19.463 751.494,18.545 752.456,18.479C754.767,18.318 755.993,19.22 756.571,20.682C757.808,23.811 756.986,28.475 756.941,31.257C756.922,32.418 756.419,36.358 757.547,38.309C758.368,39.729 759.718,40.644 762.033,40.185C766.367,39.326 770.453,37.785 774.34,35.833C780.067,32.956 785.358,29.179 790.404,25.464C792.011,24.278 796.607,21.035 800.982,18.942C802.503,18.214 803.99,17.625 805.295,17.354C806.045,17.198 806.698,17.08 807.172,17.326C808.123,17.821 808.441,18.731 808.526,19.798C808.633,21.129 808.392,22.67 808.021,24.298C807.219,27.815 805.802,31.676 805.125,34.922C804.672,37.094 804.552,39.039 804.921,40.55C805.601,43.341 807.591,45.327 812.481,44.873C815.844,44.523 818.711,43.13 821.267,41.179C824.694,38.564 827.544,34.963 830.625,32.268C836.794,26.896 843.608,20.633 851.105,15.727C856.06,12.484 861.31,9.851 866.808,8.41C880.831,4.928 902.615,2.758 918.792,8.148C930.159,11.935 938.728,19.479 939.735,32.929C940.35,41.166 938.975,47.584 936.372,52.28C932.724,58.86 926.665,62.029 920.413,62.069C915.254,62.101 910.292,61.386 906.665,59.195C904.066,57.625 902.168,55.287 901.41,51.914C900.941,49.829 900.971,47.887 901.61,46.183C902.239,44.505 903.46,43.066 905.35,41.947C906.092,41.508 908.284,41.408 909.929,41.941C910.909,42.258 911.722,42.795 911.722,43.758C911.722,44.048 911.958,44.284 912.247,44.284C912.537,44.284 912.773,44.048 912.773,43.758C912.773,42.332 911.703,41.41 910.253,40.94C908.299,40.307 905.696,40.52 904.815,41.042C902.691,42.299 901.331,43.928 900.624,45.813C899.918,47.696 899.864,49.842 900.382,52.145C901.21,55.829 903.281,58.383 906.119,60.098C909.893,62.379 915.05,63.16 920.42,63.127C927.029,63.087 933.443,59.751 937.301,52.796C939.987,47.954 941.434,41.343 940.802,32.849C939.766,18.903 930.91,11.081 919.139,7.113C902.767,1.594 880.697,3.579 866.466,7.015C860.753,8.316 855.279,10.891 850.039,14.023C842.256,18.675 835.016,24.597 828.514,29.72C825.363,32.192 822.378,35.543 818.916,37.952C816.893,39.359 814.695,40.422 812.111,40.601C810.683,40.716 809.781,40.68 809.361,40.04C808.826,39.223 809.046,37.985 809.311,36.542C810.172,31.861 812.821,25.652 813.017,21.02C813.163,17.561 812.087,14.84 809.23,13.361C807.4,12.414 804.415,12.697 801.154,14.005C795.945,16.094 789.753,20.452 787.78,21.916C782.942,25.509 777.874,29.167 772.383,31.966C768.849,33.768 765.14,35.217 761.194,36.031L761.133,36.04Z" style="fill:#ff1b00;"/>
            <path d="M684.633,24.285C683.232,22.198 681.241,21.988 679.843,22.872C678.571,23.675 677.737,25.45 678.34,27.716C679.608,32.531 685.972,34.62 691.779,33.578C697.109,32.623 701.888,29.079 701.862,22.825C701.867,14.833 695.677,11.21 687.702,9.896C676.835,8.106 662.61,10.667 657.526,11.813C647.073,14.142 637.349,17.885 628.055,22.578C618.826,27.238 610.044,32.839 601.249,38.598C596.822,41.542 591.62,46.283 586.1,49.463C582.713,51.413 579.218,52.794 575.691,52.426C571.421,52.014 569.992,50.198 570.041,47.451C570.122,42.848 572.841,36.77 574.134,31.469C575.418,26.202 575.283,21.642 571.589,19.212C569.265,17.679 566.633,17.352 563.886,17.81C558.557,18.698 552.781,22.577 548.771,24.443C543.465,26.86 537.829,28.208 532.093,28.667C526.318,29.13 520.453,28.696 514.745,27.737C514.46,27.688 514.187,27.879 514.138,28.165C514.088,28.45 514.28,28.723 514.565,28.772C520.353,29.813 526.302,30.256 532.179,29.917C538.101,29.574 543.955,28.432 549.502,26.122C552.895,24.738 557.588,21.919 562.133,20.788C564.92,20.095 567.642,20.056 569.837,21.701C572.321,23.568 571.63,26.83 570.511,30.471C568.803,36.032 565.616,42.383 565.343,47.283C565.21,49.672 565.739,51.769 567.004,53.454C568.44,55.369 570.957,56.838 575.177,57.308C578.667,57.68 582.167,56.849 585.576,55.288C592.292,52.213 598.676,46.202 603.964,42.67C610.135,38.509 616.34,34.496 622.645,30.733C626.864,28.215 631.117,25.792 635.499,23.606C642.722,20.002 650.237,16.966 658.264,14.831C663.145,13.544 676.829,10.499 687.405,11.9C694.496,12.839 700.188,15.773 700.375,22.844C700.495,28.354 696.24,31.475 691.556,32.38C686.366,33.382 680.56,31.739 679.385,27.435C678.926,25.737 679.46,24.376 680.412,23.77C681.397,23.143 682.768,23.402 683.762,24.872C683.924,25.112 684.251,25.176 684.491,25.014C684.732,24.852 684.796,24.525 684.633,24.285Z" style="fill:#ff1b00;"/>
            <path d="M507.084,15.162C505.334,15.187 503.911,15.406 502.944,15.824C501.616,16.398 500.907,17.17 500.614,17.989C500.17,19.229 500.648,20.759 501.961,22.253C502.298,22.637 502.689,23.023 503.123,23.405C498.911,25.973 492.808,29.127 484.319,32.983C481.287,34.376 475.462,35.285 470.23,36.563C466.06,37.582 462.248,38.869 460.061,40.548C458.466,41.773 457.59,43.246 457.429,44.867C457.218,46.977 458.366,49.795 462.416,53.01C469.919,58.917 479.321,62.875 489.149,64.919C498.954,66.959 509.165,67.112 518.221,65.662C534.903,62.99 547.567,54.681 547.918,42.76C548.235,34.978 542.877,28.494 535.442,23.822C528.613,19.531 520.114,16.776 513.333,15.688C513.086,15.15 512.703,14.655 512.186,14.201C510.858,13.031 508.401,12.114 505.234,11.468C498.973,10.191 489.784,9.66 482.495,7.986C476.291,6.562 471.468,4.378 471.389,0.004L471.393,-0.316L470.752,-0.325L470.748,-0.004C470.323,9.813 492.743,11.235 504.55,14.38C505.475,14.626 506.327,14.883 507.084,15.162ZM513.579,18.154C513.555,18.279 513.525,18.405 513.49,18.532C513.059,20.103 511.484,22.162 508.219,24.668C510.53,26.072 513.039,27.15 514.771,27.413L515.613,27.529L515.381,29.213L514.539,29.097C512.455,28.838 509.324,27.549 506.56,25.879L506.084,26.209C501.847,29.087 495.409,32.615 486.235,37.065C483.048,38.593 476.915,39.741 471.391,41.174C467.989,42.057 464.827,43.006 463.051,44.4C461.544,45.582 462.507,46.779 465.489,49.103C472.417,54.55 481.129,58.083 490.184,60.04C499.403,62.032 508.994,62.384 517.548,61.182C532.054,59.145 543.703,52.937 544.24,42.598L544.24,42.586C544.682,35.972 539.953,30.564 533.751,26.436C527.549,22.308 519.811,19.437 513.579,18.154ZM510.115,17.588C507.366,17.262 505.137,17.347 503.802,17.883C501.538,18.791 502.892,20.505 504.813,22.205L504.904,22.283C507.964,20.303 509.661,18.871 510.115,17.588Z" style="fill:#ff1b00;"/>
        </g>
    </g>
</svg>
