<?xml version="1.0" encoding="UTF-8" standalone="no"?>
<!DOCTYPE svg PUBLIC "-//W3C//DTD SVG 1.1//EN" "http://www.w3.org/Graphics/SVG/1.1/DTD/svg11.dtd">
<svg width="100%" height="100%" viewBox="0 0 257 145" version="1.1" xmlns="http://www.w3.org/2000/svg" xmlns:xlink="http://www.w3.org/1999/xlink" xml:space="preserve" xmlns:serif="http://www.serif.com/" style="fill-rule:evenodd;clip-rule:evenodd;stroke-linejoin:round;stroke-miterlimit:2;">
    <rect id="Artboard1" x="0" y="0" width="256.023" height="144.756" style="fill:none;"/>
    <g>
        <g>
            <g>
                <path d="M257,145L257,141.461C257,141.461 256.929,141.459 256.894,141.457C213.395,139.895 188.853,94.197 164.928,55.533C155.425,40.176 134.203,13.455 103.271,5.371C51.098,-8.264 24.578,6.661 11.88,28.421C4.49,41.085 5.335,50.783 6.008,61.867C6.517,70.258 12.66,86.64 21.569,93.251C19.064,82.387 20.058,63.797 38.077,52.301C54.372,41.905 78.287,46.799 87.465,57.917C107.582,82.284 113.745,131.109 58.065,139.607C42.91,141.92 0,141.413 0,141.413L0,145" style="fill:#de2726;"/>
            </g>
        </g>
    </g>
    <g>
        <path d="M512.045,144.756L512.045,141.412C512.045,141.412 511.975,141.41 511.939,141.408C468.441,139.846 444.876,94.197 420.951,55.533C411.448,40.176 390.226,13.455 359.294,5.371C307.121,-8.264 280.601,6.661 267.903,28.421C260.513,41.085 261.358,50.783 262.031,61.867C262.54,70.258 268.683,86.64 277.592,93.251C275.087,82.387 276.081,63.797 294.1,52.301C310.395,41.905 334.31,46.799 343.488,57.917C363.605,82.284 369.768,131.109 314.088,139.607C298.932,141.92 257,141.459 257,141.459L257,145" style="fill:#de2726;"/>
    </g>
</svg>
