<?xml version="1.0" encoding="UTF-8" standalone="no"?>
<!DOCTYPE svg PUBLIC "-//W3C//DTD SVG 1.1//EN" "http://www.w3.org/Graphics/SVG/1.1/DTD/svg11.dtd">
<svg width="100%" height="100%" viewBox="0 0 252 154" version="1.1" xmlns="http://www.w3.org/2000/svg" xmlns:xlink="http://www.w3.org/1999/xlink" xml:space="preserve" xmlns:serif="http://www.serif.com/" style="fill-rule:evenodd;clip-rule:evenodd;stroke-linejoin:round;stroke-miterlimit:2;">
    <rect id="Artboard1" x="0" y="0" width="252" height="153.979" style="fill:none;"/>
    <clipPath id="_clip1">
        <rect x="0" y="0" width="252" height="153.979"/>
    </clipPath>
    <g clip-path="url(#_clip1)">
        <g>
            <g>
                <path d="M252,153.979L252,141.417C252,141.417 251.846,141.41 251.81,141.408C208.312,139.846 184.747,94.197 160.822,55.533C151.319,40.176 130.097,13.455 99.165,5.371C46.992,-8.264 20.472,6.661 7.774,28.421C0.384,41.085 1.229,50.783 1.902,61.867C2.411,70.258 8.554,86.64 17.463,93.251C14.958,82.387 15.952,63.797 33.971,52.301C50.266,41.905 74.181,46.799 83.359,57.917C103.476,82.284 109.639,131.109 53.959,139.607C38.803,141.92 -0.137,141.413 -0.137,141.413L-0.137,153.979" style="fill:#de2726;"/>
            </g>
        </g>
    </g>
</svg>
